<?xml version="1.0" standalone="no"?>
<!DOCTYPE svg PUBLIC "-//W3C//DTD SVG 20010904//EN"
 "http://www.w3.org/TR/2001/REC-SVG-20010904/DTD/svg10.dtd">
<svg version="1.0" xmlns="http://www.w3.org/2000/svg"
 width="700.000000pt" height="700.000000pt" viewBox="0 0 700.000000 700.000000"
 preserveAspectRatio="xMidYMid meet">
<metadata>
Created by potrace 1.16, written by Peter Selinger 2001-2019
</metadata>
<g transform="translate(0.000000,700.000000) scale(0.100000,-0.100000)"
fill="#000000" stroke="none">
<path d="M4695 5283 c-32 -8 -72 -41 -88 -71 -13 -26 -140 -247 -181 -315 -10
-18 -30 -54 -45 -82 -15 -27 -34 -61 -43 -75 -23 -37 -66 -111 -80 -140 -7
-14 -15 -27 -18 -30 -9 -8 -130 -219 -130 -226 0 -4 -6 -15 -14 -23 -7 -9 -28
-43 -46 -76 -50 -90 -59 -107 -80 -140 -27 -42 -104 -178 -109 -190 -2 -5 -9
-17 -16 -25 -7 -8 -26 -40 -42 -70 -35 -65 -55 -100 -66 -114 -36 -51 -59 -93
-60 -114 -2 -25 1 -28 75 -64 25 -11 74 -10 120 4 47 14 89 60 137 149 18 35
38 69 43 76 5 7 18 27 27 45 10 18 49 86 87 151 38 65 83 142 99 171 17 29 35
60 41 67 6 8 15 24 18 37 4 12 11 22 15 22 4 0 18 24 32 53 13 28 27 54 30 57
3 3 14 19 23 35 9 17 28 48 41 70 13 22 27 47 31 55 5 8 31 56 60 105 28 50
63 111 76 136 45 80 53 94 59 99 3 3 32 52 65 110 32 57 64 112 69 122 55 93
65 112 65 123 0 17 -119 75 -150 74 -14 -1 -34 -4 -45 -6z"/>
<path d="M4224 5183 c-27 -5 -65 -46 -95 -103 -13 -24 -39 -67 -56 -94 -18
-28 -33 -55 -33 -60 0 -5 -6 -17 -14 -25 -7 -9 -27 -41 -43 -71 -17 -30 -40
-71 -52 -90 -11 -19 -28 -48 -36 -65 -9 -16 -25 -46 -37 -65 -11 -19 -34 -60
-51 -90 -17 -30 -34 -57 -38 -60 -4 -3 -13 -17 -18 -30 -6 -14 -22 -43 -36
-65 -14 -22 -30 -49 -35 -60 -5 -11 -21 -38 -34 -60 -27 -43 -35 -58 -86 -150
-18 -33 -38 -67 -45 -75 -7 -8 -16 -25 -19 -37 -4 -13 -11 -23 -16 -23 -4 0
-10 -8 -13 -17 -4 -10 -17 -36 -31 -58 -41 -64 -66 -113 -66 -127 0 -12 98
-78 115 -78 4 0 18 -9 32 -20 46 -36 64 -27 108 53 22 39 54 97 72 127 18 30
38 66 45 80 6 14 17 32 24 40 6 8 25 39 40 68 16 29 39 69 51 90 12 20 28 48
36 62 8 14 31 54 52 90 21 36 44 76 52 90 8 14 23 41 35 60 11 19 34 60 51 90
16 30 34 61 40 68 10 13 28 44 67 119 14 26 28 50 31 53 4 3 22 32 39 65 18
33 38 67 45 75 7 8 14 20 16 25 10 26 91 165 100 170 18 12 8 44 -18 58 -16 8
-41 22 -58 31 -28 15 -73 19 -121 9z"/>
<path d="M3729 5040 c-35 -18 -63 -54 -108 -135 -12 -22 -33 -58 -46 -80 -29
-48 -42 -72 -85 -150 -18 -33 -37 -65 -42 -72 -5 -7 -17 -27 -27 -45 -16 -31
-153 -270 -199 -348 -41 -68 -107 -185 -111 -194 -2 -6 -12 -19 -23 -30 -10
-11 -18 -32 -18 -48 0 -22 8 -32 35 -45 19 -10 64 -34 101 -53 55 -30 67 -33
75 -20 22 35 64 109 92 160 16 30 35 62 42 70 7 8 16 25 19 38 4 12 12 22 17
22 5 0 9 4 9 9 0 8 145 268 190 341 21 34 102 173 169 290 39 69 76 132 81
140 29 45 50 92 44 101 -10 18 -127 69 -154 69 -14 -1 -41 -9 -61 -20z"/>
<path d="M2690 4610 c-76 -8 -127 -35 -161 -85 -23 -34 -26 -35 -90 -35 -82 0
-197 -30 -232 -60 -30 -26 -41 -64 -32 -112 l6 -33 105 3 c88 4 114 1 171 -18
86 -29 249 -107 298 -143 36 -26 87 -57 95 -57 6 0 10 -4 10 -8 0 -10 106 -82
121 -82 5 0 15 14 20 30 6 17 15 30 20 30 5 0 9 5 9 11 0 7 21 47 48 91 55 93
81 136 117 198 14 25 39 65 55 90 15 25 29 51 29 57 1 17 -38 35 -134 62 -44
12 -104 29 -133 38 -50 13 -90 19 -212 26 -25 2 -74 0 -110 -3z"/>
<path d="M2737 3424 c-4 -4 -7 -43 -7 -86 0 -77 0 -79 -21 -67 -12 6 -44 9
-71 7 -53 -6 -92 -33 -102 -74 -8 -31 -24 -31 -36 1 -26 69 -170 101 -240 53
-84 -58 -96 -205 -22 -271 26 -24 87 -47 122 -47 63 0 132 44 144 93 3 15 10
27 15 27 5 0 12 -12 16 -27 9 -37 32 -61 74 -79 42 -18 59 -18 95 1 20 11 33
12 40 5 5 -5 25 -10 43 -10 l33 0 -2 238 -3 237 -35 3 c-20 2 -39 0 -43 -4z
m-328 -250 c43 -55 12 -144 -51 -144 -48 0 -68 25 -68 83 0 61 20 87 66 87 23
0 38 -7 53 -26z m305 10 c18 -18 22 -104 6 -135 -17 -30 -73 -26 -95 7 -20 31
-16 102 6 128 18 20 63 20 83 0z"/>
<path d="M1972 3390 c-45 -11 -104 -70 -119 -119 -31 -98 -10 -205 52 -267 78
-79 196 -84 272 -12 28 26 29 40 5 61 -23 21 -56 22 -72 2 -19 -22 -99 -19
-129 5 -19 16 -24 33 -28 83 -7 85 6 127 47 155 39 26 68 24 114 -10 24 -17
32 -18 52 -8 33 18 38 40 16 70 -33 44 -122 61 -210 40z"/>
<path d="M3874 3391 c-37 -9 -83 -41 -84 -58 0 -7 -4 -13 -8 -13 -20 0 -32
-57 -32 -149 0 -83 3 -102 20 -124 11 -14 20 -29 20 -34 0 -15 64 -52 110 -64
55 -14 106 -6 150 24 49 33 58 52 36 76 -22 25 -58 27 -76 6 -8 -9 -30 -15
-59 -15 -38 0 -52 5 -72 26 -21 23 -24 34 -24 111 0 80 1 86 28 109 43 37 69
39 121 10 44 -25 48 -25 71 -10 31 20 32 44 2 72 -41 38 -124 51 -203 33z"/>
<path d="M4695 3363 c-26 -7 -35 -21 -35 -55 0 -27 -2 -28 -54 -28 -35 0 -58
-5 -66 -15 -7 -8 -18 -15 -25 -15 -7 0 -15 7 -19 15 -8 22 -73 20 -80 -2 -2
-10 -5 -79 -5 -154 -1 -152 3 -163 61 -157 l33 3 5 85 c3 47 11 95 18 107 16
29 62 53 102 53 l30 0 0 -80 c0 -96 17 -143 59 -164 55 -29 141 -14 141 23 0
20 2 19 36 -4 63 -43 136 -45 201 -6 93 57 89 236 -7 290 -56 31 -143 29 -193
-4 -20 -14 -38 -31 -38 -38 -1 -7 -4 4 -8 23 -6 33 -8 35 -52 38 l-46 3 1 42
c1 44 -11 52 -59 40z m354 -189 c25 -32 27 -76 4 -115 -14 -24 -24 -29 -55
-29 -27 0 -41 6 -52 22 -21 30 -20 98 2 126 25 32 75 29 101 -4z"/>
<path d="M2867 3273 c-4 -3 -7 -75 -7 -159 0 -168 -1 -164 66 -164 l34 0 0
165 0 165 -43 0 c-24 0 -47 -3 -50 -7z"/>
<path d="M3035 3260 c-37 -24 -53 -67 -54 -141 -2 -117 50 -173 152 -166 63 4
73 -7 37 -43 -23 -23 -75 -26 -114 -9 -33 15 -56 -2 -56 -42 0 -25 5 -30 43
-40 92 -25 179 -8 218 43 23 31 24 41 27 201 4 208 3 217 -42 217 -19 0 -36
-6 -39 -12 -3 -10 -9 -10 -26 0 -32 19 -111 15 -146 -8z m146 -87 c14 -36 6
-123 -12 -134 -47 -30 -99 11 -99 77 0 51 28 84 72 84 22 0 31 -6 39 -27z"/>
<path d="M3367 3255 c-60 -41 -83 -125 -56 -206 16 -46 37 -68 84 -90 51 -24
92 -24 148 0 60 26 91 77 90 152 0 107 -62 169 -167 169 -49 0 -69 -5 -99 -25z
m152 -81 c46 -58 13 -144 -55 -144 -25 0 -38 7 -53 29 -26 36 -26 67 -1 109
26 43 78 46 109 6z"/>
<path d="M4159 3257 c-62 -41 -83 -121 -57 -209 31 -104 170 -140 262 -67 31
25 33 40 5 65 l-21 19 24 6 c22 5 23 9 20 70 -3 60 -6 66 -43 101 -37 35 -46
38 -98 38 -44 0 -66 -6 -92 -23z"/>
</g>
</svg>
